<?xml version="1.0" encoding="UTF-8" standalone="no"?>
<!DOCTYPE svg PUBLIC "-//W3C//DTD SVG 1.1//EN" "http://www.w3.org/Graphics/SVG/1.1/DTD/svg11.dtd">
<svg width="100%" height="100%" viewBox="0 0 150 19" version="1.1" xmlns="http://www.w3.org/2000/svg" xmlns:xlink="http://www.w3.org/1999/xlink" xml:space="preserve" xmlns:serif="http://www.serif.com/" style="fill-rule:evenodd;clip-rule:evenodd;stroke-linejoin:round;stroke-miterlimit:2;">
    <g transform="matrix(1,0,0,1,-0.136719,-2.59766)">
        <path d="M9.311,2.598L17.842,21.137L15.23,21.137L12.469,15.094L4.443,15.094L1.613,21.137L0.137,21.137L8.805,2.598L9.311,2.598ZM5.004,13.918L11.908,13.918L8.436,6.549L5.004,13.918Z" style="fill-rule:nonzero;"/>
        <path d="M20.604,3.008L22.107,3.008L34.33,16.625L34.33,3.008L35.67,3.008L35.67,21.506L34.986,21.506L21.984,6.59L21.984,21.137L20.604,21.137L20.604,3.008Z" style="fill-rule:nonzero;"/>
        <path d="M50.9,3.896C49.761,3.896 48.713,4.09 47.756,4.478C46.799,4.865 45.974,5.421 45.281,6.146C44.589,6.87 44.049,7.745 43.661,8.771C43.274,9.796 43.08,10.942 43.08,12.209C43.08,13.485 43.29,14.636 43.709,15.661C44.128,16.687 44.705,17.559 45.438,18.279C46.172,18.999 47.031,19.553 48.016,19.94C49,20.328 50.062,20.521 51.201,20.521C51.62,20.521 52.028,20.483 52.425,20.405C52.821,20.328 53.195,20.23 53.546,20.111C53.897,19.993 54.225,19.861 54.53,19.715C54.836,19.569 55.107,19.423 55.344,19.277L55.344,12.92L51.912,12.92L51.912,11.84L57.846,11.84L57.846,19.893C57.335,20.166 56.823,20.405 56.308,20.61C55.793,20.815 55.234,20.989 54.633,21.13C54.031,21.271 53.368,21.378 52.644,21.451C51.919,21.524 51.096,21.561 50.176,21.561C49.201,21.561 48.275,21.449 47.4,21.226C46.525,21.002 45.712,20.686 44.96,20.275C44.208,19.865 43.531,19.375 42.93,18.806C42.328,18.236 41.813,17.605 41.385,16.912C40.956,16.219 40.628,15.474 40.4,14.677C40.173,13.879 40.059,13.057 40.059,12.209C40.059,11.361 40.168,10.534 40.387,9.728C40.605,8.921 40.918,8.16 41.323,7.444C41.729,6.729 42.226,6.075 42.813,5.482C43.401,4.89 44.062,4.38 44.796,3.951C45.53,3.523 46.332,3.19 47.202,2.953C48.073,2.716 48.995,2.598 49.971,2.598C50.882,2.598 51.732,2.728 52.521,2.987C53.309,3.247 54.029,3.593 54.681,4.026C55.332,4.459 55.918,4.961 56.438,5.53C56.957,6.1 57.404,6.69 57.777,7.301L56.615,8.08C56.251,7.378 55.831,6.765 55.357,6.241C54.883,5.717 54.389,5.282 53.874,4.936C53.359,4.589 52.846,4.329 52.336,4.156C51.826,3.983 51.347,3.896 50.9,3.896Z" style="fill-rule:nonzero;"/>
        <path d="M75.1,3.008L75.1,4.184L65.543,4.184L65.543,10.664L71.941,10.664L71.941,11.84L65.543,11.84L65.543,19.961L75.1,19.961L75.1,21.137L63.041,21.137L63.041,3.008L75.1,3.008Z" style="fill-rule:nonzero;"/>
        <path d="M79.229,3.008L81.73,3.008L81.73,19.961L90.863,19.961L90.863,21.137L79.229,21.137L79.229,3.008Z" style="fill-rule:nonzero;"/>
        <path d="M103.045,21.561C101.678,21.561 100.404,21.31 99.224,20.809C98.043,20.307 97.016,19.621 96.141,18.751C95.266,17.881 94.577,16.864 94.076,15.702C93.575,14.54 93.324,13.298 93.324,11.977C93.324,10.673 93.575,9.452 94.076,8.313C94.577,7.173 95.266,6.18 96.141,5.332C97.016,4.484 98.043,3.817 99.224,3.329C100.404,2.841 101.678,2.598 103.045,2.598C104.412,2.598 105.688,2.841 106.873,3.329C108.058,3.817 109.088,4.484 109.963,5.332C110.838,6.18 111.526,7.173 112.027,8.313C112.529,9.452 112.779,10.673 112.779,11.977C112.779,13.298 112.529,14.54 112.027,15.702C111.526,16.864 110.838,17.881 109.963,18.751C109.088,19.621 108.058,20.307 106.873,20.809C105.688,21.31 104.412,21.561 103.045,21.561ZM103.045,20.658C104.13,20.658 105.089,20.442 105.923,20.009C106.757,19.576 107.456,18.972 108.021,18.197C108.587,17.423 109.015,16.507 109.307,15.449C109.598,14.392 109.744,13.234 109.744,11.977C109.744,10.728 109.598,9.584 109.307,8.545C109.015,7.506 108.587,6.61 108.021,5.858C107.456,5.106 106.757,4.523 105.923,4.108C105.089,3.694 104.13,3.486 103.045,3.486C101.951,3.486 100.985,3.694 100.146,4.108C99.308,4.523 98.608,5.106 98.048,5.858C97.487,6.61 97.063,7.506 96.776,8.545C96.489,9.584 96.346,10.728 96.346,11.977C96.346,13.234 96.489,14.392 96.776,15.449C97.063,16.507 97.487,17.423 98.048,18.197C98.608,18.972 99.308,19.576 100.146,20.009C100.985,20.442 101.951,20.658 103.045,20.658Z" style="fill-rule:nonzero;"/>
        <path d="M117.154,3.008L118.658,3.008L130.881,16.625L130.881,3.008L132.221,3.008L132.221,21.506L131.537,21.506L118.535,6.59L118.535,21.137L117.154,21.137L117.154,3.008Z" style="fill-rule:nonzero;"/>
        <path d="M149.475,3.008L149.475,4.184L139.918,4.184L139.918,10.664L146.316,10.664L146.316,11.84L139.918,11.84L139.918,19.961L149.475,19.961L149.475,21.137L137.416,21.137L137.416,3.008L149.475,3.008Z" style="fill-rule:nonzero;"/>
    </g>
</svg>
