<?xml version="1.0" encoding="UTF-8" standalone="no"?>
<!DOCTYPE svg PUBLIC "-//W3C//DTD SVG 1.1//EN" "http://www.w3.org/Graphics/SVG/1.1/DTD/svg11.dtd">
<svg width="100%" height="100%" viewBox="0 0 222 222" version="1.1" xmlns="http://www.w3.org/2000/svg" xmlns:xlink="http://www.w3.org/1999/xlink" xml:space="preserve" xmlns:serif="http://www.serif.com/" style="fill-rule:evenodd;clip-rule:evenodd;stroke-linejoin:round;stroke-miterlimit:2;">
    <g transform="matrix(1,0,0,1,-3.83766,0)">
        <circle cx="114.838" cy="111" r="111" style="fill:white;"/>
    </g>
    <g transform="matrix(0.896933,0,0,0.896933,6.17234,9.59075)">
        <path d="M15.2,146.5C15.4,145.6 15.3,144.8 15.7,144.3C17.5,142 19.3,139.6 21.5,137.7C24.3,135.3 26.5,132.6 27.7,129.1C28.2,127.6 28.9,126.2 29.4,124.7C29.6,124.2 29.8,123.6 29.7,123.1C28.7,119.8 27.5,116.5 26.4,113.2C25.2,113.5 24.1,113.7 22.8,114L22.8,97.3C21.5,97.6 20.5,97.9 19,98.3L19,91.6C19,89.8 19,88 19.2,86.2C19.4,83.8 19.2,81.6 16.8,80.1C15.8,79.5 15.7,78.4 16.1,77.2C18.3,71.1 20.4,64.9 22.5,58.7C22.8,57.8 22.4,56.8 22.4,55.8C22.4,54.7 22.2,53.5 22.6,52.6C25.8,45.9 29.8,39.7 34.9,34.3C37.8,31.2 41.4,28.8 44.8,26.3C47,24.7 49.2,23.2 51.6,22C59.7,17.9 68.2,15.5 77.4,16.4C81.7,16.8 85.5,19 89.3,20.9C97.3,24.9 104.1,30.6 111.2,35.9C117.4,40.5 123.7,44.9 130,49.5C133.3,51.9 136.6,54.4 140,56.9C146,61.2 152.6,64.5 159.5,67.2C162.4,68.3 163.1,69.9 162.6,73C162,77 161.6,81 161.3,85.1C161.2,85.9 161.8,86.8 162.1,87.6C162.2,87.8 162.4,87.9 162.4,88.1C163.5,93.4 168.1,96.8 170.2,101.6C171.2,104 172.8,106.2 174.1,108.4C174.8,109.6 175.6,110.5 176.9,111.2C185.4,115.9 193.8,120.9 202.3,125.7C204.1,126.7 205.9,127.6 207.6,128.7C208.5,129.2 209.2,130.1 210,130.8C210.3,131.1 210.5,131.6 210.9,131.7C214,132.1 214.4,135 215.7,137C216.4,138.1 215.7,139.1 214.9,139.6C213.8,140.4 213.6,141.4 213.7,142.5C213.8,143.2 213.9,144 213.8,144.6C213.5,146 214.2,146.7 215.3,147.4C219.1,149.8 218.7,149.8 218.3,154.1C217.8,159.3 214.3,162.3 211.2,165.8C208.6,168.7 206.5,171.9 204,174.9C203,176.1 201.7,177 200.5,178C197.3,180.6 193.3,181.7 189.5,183.1C188.4,183.5 187.1,184.2 186.7,185.1C184.5,190.1 179.8,191.5 175.3,193.1C171.1,194.6 166.7,195.8 162.8,197.9C157.5,200.7 152.6,204.3 148.5,208.9C148,209.5 146.8,210 146,209.9C142.7,209.6 139.4,209.4 136.2,208.7C129.5,207.3 123.2,204.9 117.2,201.7C115.5,200.8 115.2,199.8 115.6,198C116.8,192.1 119.5,186.8 122,181.4C123.2,178.7 124.3,175.9 125.4,173.1C125.7,172.5 125.7,171.7 125.6,171C125.4,171.5 125.2,171.9 125,172.4C121.8,179.8 117.4,186.5 112.1,192.6C111.3,193.5 110.4,194.4 109.4,195C108.9,195.3 107.8,195.4 107.3,195.1C100.9,191 94.4,187 88.2,182.6C77.5,175.1 67,167.1 56.2,159.7C48.8,154.6 41,150.4 32.2,148.2C27.9,147.1 23.6,146.1 19.2,146.3C17.9,146.1 16.8,146.3 15.2,146.5ZM203.6,146.1C207,143.3 210.5,140.6 213.9,137.8C213.6,137.2 213.3,136.7 213.1,136.2C211.7,133.4 211.1,133.2 208.2,134.9C206.2,136.1 204.2,137.2 202.5,138.6C197.1,143.1 191.7,147.7 186.5,152.4C184.5,154.2 182.8,156.5 181,158.6C181.7,158.8 182.1,158.7 182.5,158.4C188.7,154.8 194.9,151.2 201,147.6C202,147.1 202.8,146.5 203.6,146.1C202.5,147.9 201.4,149.9 200,151.7C197.4,155.2 195.4,158.9 196.3,163.5C196.4,163.8 196.3,164.1 196.3,164.4C196.4,165.4 195.8,165.8 194.9,165.8C189.5,165.5 184.9,167.8 180.2,169.8C176.8,171.3 173.3,173.2 169.7,173.8C164.4,174.8 159.3,175.9 154.2,177.7C153.7,177.9 153.3,178.2 152.8,178.5C153.6,178.8 154.1,178.7 154.7,178.6C157,178.2 159.3,177.6 161.6,177.4C166.5,176.9 171.5,176.5 176.4,176.3C180.6,176.1 184.8,176 188.9,176.5C191.2,176.8 193.2,176.9 195.3,176C196.4,175.5 197.7,175.4 198.7,174.7C199.9,173.9 201.4,173.1 201.9,171.9C204.4,165.8 206.7,159.6 208.9,153.4C209.6,151.5 210.1,149.5 210.2,147.5C210.3,146.4 209.6,145.1 208.8,144.2C208.5,143.9 207.1,144.4 206.3,144.7C205.5,145 204.6,145.6 203.6,146.1ZM200.8,129C199.6,127.9 198.4,126.8 197.3,125.8C191,120.5 183.8,116.8 176.3,113.4C174.6,112.6 173.5,111.6 172.6,109.7C170.2,105.1 167.4,100.6 164.3,96.4C161.7,92.9 157.3,92.4 153.7,95.1C151.5,96.8 149.7,99 147.5,101.1C142.3,99.3 136.8,97.4 131.2,95.4C131.2,95.2 131.3,95 131.3,94.8C135.3,94.3 140.1,95.7 142.1,90.2C138.9,89.9 135.8,89.7 132.7,89.5C136.2,89 139.7,88.4 142.2,85.9C141.4,84.6 140.6,83.3 139.5,81.6C134.1,80.6 129,82.8 123.9,85.4C125,83.4 126.2,81.7 127.3,79.9C130.4,75.1 136.9,73.1 141.9,76.2C144.6,77.8 147.4,78.3 150.5,77.4C151,77.2 151.5,76.7 152,76.4C151.5,76 151.1,75.2 150.6,75.1C145.7,73.9 141.4,71.4 137.3,68.5C133.6,65.8 130,62.9 126.4,60.1C124.6,61.2 123,62.2 121.4,63.4C119.1,65.2 116.5,66.8 115.9,70C114.9,74.9 115.6,79.6 118.2,83.9C118.9,85 118.8,85.8 118.3,86.8C116.3,91.1 114.2,95.3 112.5,99.7C111.7,101.7 111.5,104.1 111.8,106.2C112.3,111.1 113.4,115.8 116.2,119.9C117.2,121.3 118.4,122.8 119.9,123.6C122.6,125.1 125.2,123.9 127,121.9C129.2,119.5 131,116.7 133.1,114.2C133.6,113.5 134.6,113 135.4,112.9C135.8,112.9 136.8,113.9 136.9,114.5C138.1,122.1 141,129 145.8,135C149,139 152.2,143.1 155.7,146.8C158.1,149.3 161.2,150.9 164.9,149.2C165.7,148.8 166.6,148.7 167.7,148.4C168.1,153.6 168.5,158.7 168.9,164C171.9,163.6 173.9,161.7 176,159.8C183.2,153.1 190.4,146.3 197.8,139.8C200.3,137.6 203.3,136 206,134C206.4,133.7 206.9,133.1 206.9,132.6C206.8,130.3 202.8,128.1 200.8,129ZM47,102.9C43.4,98.9 40.7,94.5 39.9,89.5C38.6,81.7 41,75 47.7,70.3C52.6,66.9 59.7,66.8 63.8,70.3C65.8,72 67.5,74 69.3,75.9C69.6,76.2 69.7,76.7 69.9,77.3C66.9,77.3 64.5,77.9 62.5,80.5C63.5,80.8 64.3,81.2 65,81.3C71.7,81.8 76.6,85.4 80.7,90.3C81.7,91.5 82.8,92.7 83.8,93.9C84,93.8 84.2,93.7 84.4,93.6C84.2,92.8 84.1,92 83.8,91.2C81.8,86.6 79.8,81.9 77.8,77.3C77.5,76.6 77,75.8 76.4,75.3C71.8,70.6 66.4,66.9 60.6,64.2C56.3,62.2 51.5,61.7 46.9,63.1C38,65.8 31.7,75.9 33,85.2C33.7,90.8 35.7,95.8 38.4,100.7C41.6,106.5 46,110.9 52.1,113.6C53.9,114.4 55.8,115.3 57.1,116.7C61.8,121.8 67.8,122.6 74.1,121.7C76.6,121.3 79.2,119.9 81.4,118.5C85.4,116 87.5,111.8 89.3,107.6C90.7,104.3 90,102.3 87,100.4C84.9,99 83.1,99.3 81.8,101.4C80.8,102.9 80.3,104.8 79.3,106.3C78.3,108 77.4,110 75.9,111C69.2,115.3 60.2,113.2 55.1,108.4C57.9,105.3 61.1,107.8 64.4,107.8C58.5,100.9 54.2,93.7 56.9,84.2C56.5,84.1 56.2,83.9 55.9,83.8C50.5,82.7 46,87.3 46.7,93.2C46.9,95.1 47.6,97 48.1,98.9C48.5,100.4 48.4,101.6 47,102.9ZM121.5,150.9C123.2,150.7 124.9,150.2 126.4,150.4C128.9,150.9 131.3,151.9 132.9,153.9C134.8,156.2 136.4,158.7 138.2,161.1C138.6,161.6 138.9,162.2 139.3,162.8C139.5,162.7 139.7,162.6 140,162.5C139.2,159.9 138.4,157.3 137.6,154.7C136.1,149.8 132,147.6 127.7,146.1C124.4,145.1 120.9,148.2 121.5,150.9ZM206.1,166.9C206.2,167 206.4,167 206.5,167.1C210.6,163.5 215.4,160.5 216.3,154.4C216.4,153.8 216.5,153.2 216.8,152.7C217.7,151.1 217,150.3 215.5,149.7C214,149 213.1,149.5 212.5,150.9C210.6,155.4 208.6,159.9 206.7,164.4C206.4,165.2 206.3,166.1 206.1,166.9ZM154.8,76.1C159.4,76.8 161.2,74.4 161.5,70.9C161.6,70.2 160.6,69.3 160.1,68.5C159.7,69 159.2,69.5 158.8,70.1C157.9,71.2 157.1,72.6 156,73.5C155,74.1 154.5,74.8 154.8,76.1ZM139.3,169.8C139.2,171.9 139.1,174 139,176.1C138.9,178 139.9,179.2 141.5,179.9C143.1,180.5 144.4,179.8 146.1,178.7C140.7,177.7 141.2,173.1 139.3,169.8ZM159.8,79.5C156.7,79.6 156.3,80.1 156.7,83.4C157.5,83.7 158.4,83.9 159.3,84.2C159.5,82.7 159.7,81.1 159.8,79.5ZM158.5,85.8C157.9,86.3 157.5,86.5 157.3,86.9C157.2,87.2 157.4,87.8 157.7,87.9C158.5,88.4 159.4,88.9 160.4,89.3C160.6,89.4 161.1,88.6 161.4,88.2C160.5,87.4 159.6,86.6 158.5,85.8Z" style="fill-rule:nonzero;"/>
        <path d="M162.5,112.8C160.6,111.1 158.8,109.3 156.9,107.7C156.1,107 155,106.5 154.1,106.1C152.7,105.5 151.5,104.9 151.6,103.1C151.8,101.5 152.9,100.3 154.6,100.3C155.3,100.3 156.2,100.8 156.5,101.3C158.7,105 160.8,108.8 163,112.5C162.8,112.6 162.7,112.7 162.5,112.8Z" style="fill-rule:nonzero;"/>
    </g>
</svg>
